# xmcd
#
# Track frame offsets:
# 150
# 17690
# 34462
# 50787
# 65257
# 81577
# 99347
# 114832
# 127652
# 143307
# 159817
# 175230
#
# Disc length: 2632 seconds
#
# Revision: 26
# Processed by: cddbd v1.5.2PL0 Copyright (c) Steve Scherf et al.
# Submitted via: TinyPlayer 2.8
#
DISCID=8e0a460c
DTITLE=Dixie Chicks - Wide Open Spaces
DYEAR=1998
DGENRE=Country
TTITLE0=I Can Love You Better
TTITLE1=Wide Open Spaces
TTITLE2=Loving Arms
TTITLE3=There's Your Trouble
TTITLE4=You Were Mine
TTITLE5=Never Say Die
TTITLE6=Tonight the Heartache's on Me
TTITLE7=Let 'er Rip
TTITLE8=Once You've Loved Somebody
TTITLE9=I'll Take Care of You
TTITLE10=Am I the Only One (Who's Ever Felt This Way)
TTITLE11=Give It Up or Let Me Go
EXTD=Location:  - UPC: 074646819524 - Catalogue number: NK 68195 - Label: Monument Records - ASIN: B000002BZ0 - Release Date: 1998 01 27 - Discogs: a299586,m121570,r591939 - MUSICBRAINZ_ALBUMID: 786a9207-2c59-48c0-a5d1-1d755bdfb3ae - AMG: mn0000162487,mw000059
EXTD=6915;
EXTT0=
EXTT1=
EXTT2=
EXTT3=
EXTT4=
EXTT5=
EXTT6=
EXTT7=
EXTT8=
EXTT9=
EXTT10=
EXTT11=
PLAYORDER=
